<?xml version="1.0" encoding="UTF-8"?>
<svg width="132px" height="132px" viewBox="0 0 132 132" version="1.1" xmlns="http://www.w3.org/2000/svg" xmlns:xlink="http://www.w3.org/1999/xlink">
    <!-- Generator: Sketch 51.3 (57544) - http://www.bohemiancoding.com/sketch -->
    <title>logo</title>
    <desc>Created with Sketch.</desc>
    <defs></defs>
    <g id="Page-1" stroke="none" stroke-width="1" fill="none" fill-rule="evenodd">
        <g id="Desktop" transform="translate(-449.000000, -402.000000)" fill="#121115">
            <path d="M524.680788,465.765565 C532.346061,462.709499 537.586502,457.630418 539.72376,451.974191 C541.599497,447.017353 541.314931,441.682764 538.903125,436.54657 C535.317982,428.916425 527.433272,420.796308 513.357227,427.474563 L505.259092,431.277111 L539.34701,510.026416 L519.364195,519.110446 C500.783174,525.834793 487.826359,521.14248 480.544851,504.833108 C475.011827,492.437505 477.541868,479.904629 487.275261,470.959875 L453.660285,443.641652 C450.664316,451.180616 449,459.392916 449,467.998998 C449,504.450348 478.548874,534 514.999499,534 C537.813955,534 557.924023,522.422019 569.77764,504.823088 L524.680788,465.765565 Z M459.915749,431.652856 C471.72628,413.7894 491.981638,402 514.999499,402 C551.450124,402 581,431.549652 581,467.998998 C581,476.819505 579.256526,485.229197 576.11627,492.920463 L542.724739,465.783601 C552.45713,456.837845 554.987171,444.304969 549.455149,431.908364 C542.172639,415.599994 526.334082,410.105087 510.634803,417.631025 L490.653992,426.715056 L524.740908,505.463359 L516.643775,509.266909 C502.286169,515.313911 494.682018,507.827051 491.096875,500.194902 C488.684067,495.059709 488.400503,489.725121 490.275238,484.767281 C492.4145,479.111054 496.27419,474.733365 505.320214,470.975907 L459.915749,431.652856 Z" id="logo"></path>
        </g>
    </g>
</svg>